<svg width="207" height="76" viewBox="0 0 207 76" fill="none" xmlns="http://www.w3.org/2000/svg">
<rect x="0.575854" y="0.575854" width="205.848" height="74.8483" rx="11.7347" fill="white" stroke="#090909" stroke-width="0.848292"/>
<path d="M47.9896 39.1218C48.03 35.9953 49.7162 33.0369 52.3913 31.3994C50.7037 28.9995 47.8771 27.4779 44.9364 27.3863C41.7999 27.0585 38.7591 29.2552 37.1608 29.2552C35.5315 29.2552 33.0706 27.4188 30.4207 27.4731C26.9666 27.5843 23.7465 29.5397 22.066 32.5467C18.4536 38.7744 21.1481 47.927 24.6085 52.9611C26.3398 55.4261 28.3632 58.1796 31.0108 58.0819C33.6016 57.9749 34.5692 56.4369 37.6965 56.4369C40.7948 56.4369 41.7026 58.0819 44.4039 58.0198C47.184 57.9749 48.9355 55.5439 50.6061 53.0555C51.85 51.2991 52.8072 49.3579 53.4422 47.3038C50.1752 45.9278 47.9934 42.654 47.9896 39.1218Z" fill="#090909"/>
<path d="M42.8873 24.0757C44.4031 22.2638 45.1498 19.9348 44.969 17.5835C42.6532 17.8257 40.514 18.9278 38.9778 20.6702C37.4755 22.3726 36.6937 24.6606 36.8415 26.922C39.1581 26.9458 41.4356 25.8736 42.8873 24.0757Z" fill="#090909"/>
<path d="M140.396 29.1908V32.9794H138.011V35.4639H140.396V43.9059C140.396 46.7886 141.705 47.9416 145 47.9416C145.579 47.9416 146.131 47.873 146.613 47.7906V45.3335C146.2 45.3747 145.938 45.4022 145.483 45.4022C144.008 45.4022 143.36 44.7158 143.36 43.151V35.4639H146.613V32.9794H143.36V29.1908H140.396Z" fill="#090909"/>
<path d="M155.006 48.1475C159.39 48.1475 162.078 45.2237 162.078 40.3781C162.078 35.56 159.376 32.6225 155.006 32.6225C150.622 32.6225 147.921 35.56 147.921 40.3781C147.921 45.2237 150.609 48.1475 155.006 48.1475ZM155.006 45.5257C152.428 45.5257 150.981 43.6451 150.981 40.3781C150.981 37.1386 152.428 35.2443 155.006 35.2443C157.57 35.2443 159.032 37.1386 159.032 40.3781C159.032 43.6314 157.57 45.5257 155.006 45.5257Z" fill="#090909"/>
<path d="M164.378 47.8593H167.342V39.0329C167.342 36.9327 168.927 35.5188 171.174 35.5188C171.698 35.5188 172.581 35.6149 172.829 35.6973V32.7872C172.512 32.7048 171.946 32.6636 171.505 32.6636C169.548 32.6636 167.88 33.7343 167.452 35.2031H167.232V32.9107H164.378V47.8593Z" fill="#090909"/>
<path d="M180.188 35.1345C182.38 35.1345 183.813 36.6582 183.882 39.0055H176.3C176.466 36.6719 177.996 35.1345 180.188 35.1345ZM183.869 43.8236C183.317 44.9904 182.09 45.6355 180.298 45.6355C177.927 45.6355 176.397 43.9746 176.3 41.3527V41.188H186.901V40.1585C186.901 35.4639 184.379 32.6225 180.202 32.6225C175.97 32.6225 173.281 35.6561 173.281 40.433C173.281 45.21 175.914 48.1475 180.215 48.1475C183.648 48.1475 186.047 46.5003 186.722 43.8236H183.869Z" fill="#090909"/>
<path d="M120.959 42.339C121.188 46.0097 124.26 48.3572 128.832 48.3572C133.719 48.3572 136.776 45.8959 136.776 41.9691C136.776 38.8817 135.033 37.1744 130.804 36.1927L128.532 35.6379C125.846 35.0119 124.76 34.1724 124.76 32.707C124.76 30.8574 126.446 29.6481 128.975 29.6481C131.375 29.6481 133.033 30.829 133.333 32.7212H136.448C136.262 29.264 133.204 26.8311 129.018 26.8311C124.517 26.8311 121.516 29.264 121.516 32.9204C121.516 35.9366 123.217 37.7293 126.946 38.5972L129.604 39.2374C132.333 39.8777 133.533 40.8167 133.533 42.3817C133.533 44.2028 131.647 45.526 129.075 45.526C126.317 45.526 124.403 44.2882 124.131 42.339H120.959Z" fill="#090909"/>
<path d="M90.2565 32.6636C88.2162 32.6636 86.4517 33.6794 85.5418 35.3816H85.3213V32.9107H82.4677V52.8284H85.4315V45.5943H85.6659C86.4517 47.1729 88.1473 48.1064 90.284 48.1064C94.075 48.1064 96.4875 45.1276 96.4875 40.3781C96.4875 35.6286 94.075 32.6636 90.2565 32.6636ZM89.4155 45.4571C86.9342 45.4571 85.3764 43.5079 85.3764 40.3919C85.3764 37.2621 86.9342 35.3129 89.4293 35.3129C91.9383 35.3129 93.4409 37.221 93.4409 40.3781C93.4409 43.549 91.9383 45.4571 89.4155 45.4571Z" fill="#090909"/>
<path d="M106.859 32.6636C104.818 32.6636 103.054 33.6794 102.144 35.3816H101.923V32.9107H99.0698V52.8284H102.034V45.5943H102.268C103.054 47.1729 104.749 48.1064 106.886 48.1064C110.677 48.1064 113.09 45.1276 113.09 40.3781C113.09 35.6286 110.677 32.6636 106.859 32.6636ZM106.018 45.4571C103.536 45.4571 101.979 43.5079 101.979 40.3919C101.979 37.2621 103.536 35.3129 106.031 35.3129C108.54 35.3129 110.043 37.221 110.043 40.3781C110.043 43.549 108.54 45.4571 106.018 45.4571Z" fill="#090909"/>
<path d="M77.15 47.8593H80.5506L73.1064 27.329H69.6629L62.2188 47.8593H65.505L67.4054 42.4101H75.2639L77.15 47.8593ZM71.2203 31.0566H71.4632L74.4495 39.7354H68.2198L71.2203 31.0566Z" fill="#090909"/>
</svg>
