<svg width="320" height="320" viewBox="0 0 320 320" fill="none" xmlns="http://www.w3.org/2000/svg">
<g filter="url(#filter0_d_1_2316)">
<rect x="74" y="72" width="160" height="160" rx="80" fill="white"/>
<path opacity="0.24" d="M154 185.367C172.41 185.367 187.333 170.443 187.333 152.033C187.333 133.624 172.41 118.7 154 118.7C135.591 118.7 120.667 133.624 120.667 152.033C120.667 170.443 135.591 185.367 154 185.367Z" fill="#F54F35"/>
<path d="M154.018 149.5C149.33 149.5 145.518 145.686 145.518 141C145.518 136.314 149.33 132.5 154.018 132.5C158.706 132.5 162.518 136.314 162.518 141C162.518 145.686 158.706 149.5 154.018 149.5ZM154.018 135.5C150.984 135.5 148.518 137.966 148.518 141C148.518 144.034 150.984 146.5 154.018 146.5C157.052 146.5 159.518 144.034 159.518 141C159.518 137.966 157.05 135.5 154.018 135.5ZM161.994 171.5H146.006C141.166 171.5 138.5 168.85 138.5 164.038C138.5 158.716 141.512 152.5 150 152.5H158C166.488 152.5 169.5 158.714 169.5 164.038C169.5 168.85 166.834 171.5 161.994 171.5ZM150 155.5C142.114 155.5 141.5 162.034 141.5 164.038C141.5 167.166 142.848 168.5 146.006 168.5H161.994C165.152 168.5 166.5 167.166 166.5 164.038C166.5 162.036 165.886 155.5 158 155.5H150Z" fill="#F54F35"/>
</g>
<defs>
<filter id="filter0_d_1_2316" x="0" y="0" width="320" height="320" filterUnits="userSpaceOnUse" color-interpolation-filters="sRGB">
<feFlood flood-opacity="0" result="BackgroundImageFix"/>
<feColorMatrix in="SourceAlpha" type="matrix" values="0 0 0 0 0 0 0 0 0 0 0 0 0 0 0 0 0 0 127 0" result="hardAlpha"/>
<feOffset dx="6" dy="8"/>
<feGaussianBlur stdDeviation="40"/>
<feComposite in2="hardAlpha" operator="out"/>
<feColorMatrix type="matrix" values="0 0 0 0 0.579167 0 0 0 0 0.579167 0 0 0 0 0.579167 0 0 0 0.16 0"/>
<feBlend mode="normal" in2="BackgroundImageFix" result="effect1_dropShadow_1_2316"/>
<feBlend mode="normal" in="SourceGraphic" in2="effect1_dropShadow_1_2316" result="shape"/>
</filter>
</defs>
</svg>
