<svg width="203" height="76" viewBox="0 0 203 76" fill="none" xmlns="http://www.w3.org/2000/svg">
<rect x="0.575854" y="0.575854" width="201.848" height="74.8483" rx="11.7347" fill="white" stroke="#090909" stroke-width="0.848292"/>
<g filter="url(#filter0_ii_1_2367)">
<path d="M21.0587 19.7385C20.6252 20.1944 20.3689 20.9018 20.3689 21.8179V54.5496C20.3689 55.4672 20.6252 56.1732 21.0587 56.629L21.169 56.7356L39.6277 38.3999V38.1838V37.9677L21.169 19.6305L21.0587 19.7385Z" fill="url(#paint0_linear_1_2367)"/>
<path d="M45.7796 44.5137L39.6277 38.3998V38.1837V37.9676L45.7811 31.8552L45.9197 31.9337L53.2099 36.0481C55.2913 37.2232 55.2913 39.1457 53.2099 40.3223L45.9197 44.4367L45.7796 44.5137Z" fill="url(#paint1_linear_1_2367)"/>
<g filter="url(#filter1_i_1_2367)">
<path d="M45.9193 44.4349L39.6259 38.1833L21.0584 56.6286C21.7437 57.3508 22.8776 57.4396 24.1544 56.7204L45.9193 44.4349Z" fill="url(#paint2_linear_1_2367)"/>
</g>
<path d="M45.9193 31.9323L24.1544 19.6483C22.8776 18.9275 21.7437 19.0178 21.0584 19.74L39.6273 38.1853L45.9193 31.9323Z" fill="url(#paint3_linear_1_2367)"/>
</g>
<path d="M101.587 32.9578C98.2776 32.9578 95.58 35.4475 95.58 38.8766C95.58 42.2848 98.2776 44.7954 101.587 44.7954C104.898 44.7954 107.596 42.2848 107.596 38.8766C107.595 35.4475 104.897 32.9578 101.587 32.9578ZM101.587 42.4657C99.7735 42.4657 98.2101 40.9864 98.2101 38.878C98.2101 36.7473 99.7749 35.2902 101.587 35.2902C103.401 35.2902 104.965 36.7473 104.965 38.878C104.965 40.985 103.401 42.4657 101.587 42.4657ZM88.4808 32.9578C85.1711 32.9578 82.4735 35.4475 82.4735 38.8766C82.4735 42.2848 85.1711 44.7954 88.4808 44.7954C91.7919 44.7954 94.4895 42.2848 94.4895 38.8766C94.4895 35.4475 91.7919 32.9578 88.4808 32.9578ZM88.4808 42.4657C86.6669 42.4657 85.1035 40.9864 85.1035 38.878C85.1035 36.7473 86.6683 35.2902 88.4808 35.2902C90.2946 35.2902 91.858 36.7473 91.858 38.878C91.8594 40.985 90.2946 42.4657 88.4808 42.4657ZM72.8919 34.7753V37.2859H78.9682C78.7866 38.6984 78.311 39.7297 77.5849 40.4464C76.7012 41.3204 75.3179 42.2848 72.8919 42.2848C69.1516 42.2848 66.2275 39.3024 66.2275 35.6034C66.2275 31.9043 69.1516 28.922 72.8919 28.922C74.9098 28.922 76.3832 29.7069 77.4709 30.7158L79.2623 28.9442C77.7425 27.5094 75.726 26.4114 72.8919 26.4114C67.7683 26.4114 63.4609 30.5363 63.4609 35.6034C63.4609 40.6704 67.7683 44.7954 72.8919 44.7954C75.6571 44.7954 77.7439 43.8977 79.3748 42.2166C81.0522 40.5577 81.5743 38.2253 81.5743 36.3423C81.5743 35.7606 81.5293 35.2221 81.4378 34.7739L72.8919 34.7753ZM136.649 36.7251C136.151 35.403 134.631 32.9578 131.525 32.9578C128.442 32.9578 125.88 35.357 125.88 38.8766C125.88 42.1943 128.42 44.7954 131.819 44.7954C134.562 44.7954 136.149 43.1365 136.808 42.1721L134.767 40.8263C134.088 41.813 133.158 42.4629 131.819 42.4629C130.483 42.4629 129.53 41.8575 128.918 40.6691L136.92 37.3958L136.649 36.7251ZM128.487 38.6984C128.42 36.4105 130.279 35.2457 131.617 35.2457C132.659 35.2457 133.543 35.762 133.839 36.501L128.487 38.6984ZM121.982 44.4377H124.61V27.0404H121.982V44.4377ZM117.673 34.2813H117.583C116.993 33.5854 115.859 32.9578 114.432 32.9578C111.439 32.9578 108.696 35.5588 108.696 38.9002C108.696 42.218 111.439 44.7968 114.432 44.7968C115.86 44.7968 116.993 44.1691 117.583 43.4524H117.673V44.3041C117.673 46.5684 116.449 47.7791 114.477 47.7791C112.867 47.7791 111.87 46.6365 111.462 45.6721L109.172 46.6143C109.829 48.1827 111.574 50.1115 114.477 50.1115C117.56 50.1115 120.168 48.3177 120.168 43.9451V33.3182H117.674L117.673 34.2813ZM114.659 42.4657C112.845 42.4657 111.326 40.9627 111.326 38.9002C111.326 36.8141 112.845 35.2902 114.659 35.2902C116.449 35.2902 117.854 36.8141 117.854 38.9002C117.854 40.9627 116.449 42.4657 114.659 42.4657ZM148.967 27.0404H142.676V44.4377H145.3V37.8467H148.966C151.876 37.8467 154.738 35.7634 154.738 32.4443C154.738 29.1251 151.877 27.0404 148.967 27.0404ZM149.035 35.4252H145.3V29.4619H149.035C150.998 29.4619 152.112 31.0693 152.112 32.4443C152.112 33.7914 150.998 35.4252 149.035 35.4252ZM165.263 32.9272C163.362 32.9272 161.393 33.7552 160.578 35.5908L162.908 36.5525C163.407 35.5908 164.335 35.2763 165.308 35.2763C166.666 35.2763 168.046 36.0821 168.069 37.5141V37.6937C167.593 37.4251 166.574 37.0229 165.33 37.0229C162.818 37.0229 160.26 38.3881 160.26 40.939C160.26 43.2673 162.32 44.7661 164.628 44.7661C166.393 44.7661 167.366 43.9826 167.977 43.0641H168.067V44.4071H170.603V37.7368C170.604 34.6501 168.271 32.9272 165.263 32.9272ZM164.945 42.4615C164.086 42.4615 162.886 42.0357 162.886 40.9836C162.886 39.6406 164.38 39.1257 165.671 39.1257C166.823 39.1257 167.368 39.372 168.069 39.7074C167.865 41.3204 166.462 42.4615 164.945 42.4615ZM179.837 33.3071L176.827 40.85H176.737L173.613 33.3071H170.784L175.469 43.849L172.798 49.7135H175.537L182.757 33.3071H179.837ZM156.188 44.4377H158.812V27.0404H156.188V44.4377Z" fill="#090909"/>
<defs>
<filter id="filter0_ii_1_2367" x="20.3689" y="19.1509" width="34.4021" height="38.0663" filterUnits="userSpaceOnUse" color-interpolation-filters="sRGB">
<feFlood flood-opacity="0" result="BackgroundImageFix"/>
<feBlend mode="normal" in="SourceGraphic" in2="BackgroundImageFix" result="shape"/>
<feColorMatrix in="SourceAlpha" type="matrix" values="0 0 0 0 0 0 0 0 0 0 0 0 0 0 0 0 0 0 127 0" result="hardAlpha"/>
<feOffset dy="-0.224797"/>
<feComposite in2="hardAlpha" operator="arithmetic" k2="-1" k3="1"/>
<feColorMatrix type="matrix" values="0 0 0 0 0 0 0 0 0 0 0 0 0 0 0 0 0 0 0.12 0"/>
<feBlend mode="normal" in2="shape" result="effect1_innerShadow_1_2367"/>
<feColorMatrix in="SourceAlpha" type="matrix" values="0 0 0 0 0 0 0 0 0 0 0 0 0 0 0 0 0 0 127 0" result="hardAlpha"/>
<feOffset dy="0.224797"/>
<feComposite in2="hardAlpha" operator="arithmetic" k2="-1" k3="1"/>
<feColorMatrix type="matrix" values="0 0 0 0 1 0 0 0 0 1 0 0 0 0 1 0 0 0 0.25 0"/>
<feBlend mode="normal" in2="effect1_innerShadow_1_2367" result="effect2_innerShadow_1_2367"/>
</filter>
<filter id="filter1_i_1_2367" x="21.0583" y="38.1833" width="24.8611" height="19.0338" filterUnits="userSpaceOnUse" color-interpolation-filters="sRGB">
<feFlood flood-opacity="0" result="BackgroundImageFix"/>
<feBlend mode="normal" in="SourceGraphic" in2="BackgroundImageFix" result="shape"/>
<feColorMatrix in="SourceAlpha" type="matrix" values="0 0 0 0 0 0 0 0 0 0 0 0 0 0 0 0 0 0 127 0" result="hardAlpha"/>
<feOffset dy="-0.224797"/>
<feComposite in2="hardAlpha" operator="arithmetic" k2="-1" k3="1"/>
<feColorMatrix type="matrix" values="0 0 0 0 0 0 0 0 0 0 0 0 0 0 0 0 0 0 0.08 0"/>
<feBlend mode="normal" in2="shape" result="effect1_innerShadow_1_2367"/>
</filter>
<linearGradient id="paint0_linear_1_2367" x1="37.9915" y1="21.4716" x2="13.1547" y2="46.4751" gradientUnits="userSpaceOnUse">
<stop stop-color="#00A0FF"/>
<stop offset="0.0066" stop-color="#00A1FF"/>
<stop offset="0.2601" stop-color="#00BEFF"/>
<stop offset="0.5122" stop-color="#00D2FF"/>
<stop offset="0.7604" stop-color="#00DFFF"/>
<stop offset="1" stop-color="#00E3FF"/>
</linearGradient>
<linearGradient id="paint1_linear_1_2367" x1="55.9193" y1="38.1837" x2="19.8691" y2="38.1837" gradientUnits="userSpaceOnUse">
<stop stop-color="#FFE000"/>
<stop offset="0.4087" stop-color="#FFBD00"/>
<stop offset="0.7754" stop-color="#FFA500"/>
<stop offset="1" stop-color="#FF9C00"/>
</linearGradient>
<linearGradient id="paint2_linear_1_2367" x1="42.5016" y1="41.5783" x2="8.81974" y2="75.4861" gradientUnits="userSpaceOnUse">
<stop stop-color="#FF3A44"/>
<stop offset="1" stop-color="#C31162"/>
</linearGradient>
<linearGradient id="paint3_linear_1_2367" x1="16.3821" y1="8.84397" x2="31.4219" y2="23.9848" gradientUnits="userSpaceOnUse">
<stop stop-color="#32A071"/>
<stop offset="0.0685" stop-color="#2DA771"/>
<stop offset="0.4762" stop-color="#15CF74"/>
<stop offset="0.8009" stop-color="#06E775"/>
<stop offset="1" stop-color="#00F076"/>
</linearGradient>
</defs>
</svg>
