<svg width="320" height="320" viewBox="0 0 320 320" fill="none" xmlns="http://www.w3.org/2000/svg">
<g filter="url(#filter0_d_1_2323)">
<rect x="74" y="72" width="160" height="160" rx="80" fill="white"/>
<path opacity="0.24" d="M154 185.367C172.41 185.367 187.333 170.443 187.333 152.033C187.333 133.624 172.41 118.7 154 118.7C135.591 118.7 120.667 133.624 120.667 152.033C120.667 170.443 135.591 185.367 154 185.367Z" fill="#F54F35"/>
<path d="M173.378 154.018C173.378 154.012 173.382 154.006 173.382 154C173.382 153.982 173.372 153.968 173.372 153.95C173.348 153.808 173.32 153.666 173.286 153.524C173.27 153.476 173.262 153.428 173.242 153.382C173.146 153.008 173.05 152.636 172.896 152.276L168.938 143.044C167.936 140.706 166.99 138.498 162.044 138.498C161.216 138.498 160.544 139.17 160.544 139.998C160.544 140.826 161.216 141.498 162.044 141.498C165.012 141.498 165.282 142.13 166.18 144.226L169.726 152.498H164.09C161.59 152.498 159.272 153.908 157.886 156.272C157.084 157.644 155.594 158.498 154 158.498C152.406 158.498 150.916 157.644 150.114 156.27C148.73 153.908 146.41 152.498 143.91 152.498H138.274L141.82 144.226C142.718 142.13 142.988 141.498 145.956 141.498C146.784 141.498 147.456 140.826 147.456 139.998C147.456 139.17 146.784 138.498 145.956 138.498C141.008 138.498 140.064 140.706 139.062 143.044L135.104 152.278C134.95 152.636 134.854 153.008 134.758 153.38C134.738 153.426 134.73 153.476 134.714 153.524C134.68 153.664 134.654 153.806 134.628 153.948C134.628 153.966 134.618 153.98 134.618 153.998C134.618 154.004 134.622 154.008 134.622 154.016C134.556 154.416 134.5 154.82 134.5 155.23V164C134.5 168.836 137.164 171.5 142 171.5H166C170.836 171.5 173.5 168.836 173.5 164V155.232C173.5 154.82 173.444 154.418 173.378 154.018ZM166 168.5H142C138.846 168.5 137.5 167.154 137.5 164V155.5H143.91C145.334 155.5 146.684 156.356 147.524 157.788C148.862 160.078 151.344 161.5 154 161.5C156.656 161.5 159.138 160.078 160.476 157.79C161.316 156.356 162.666 155.5 164.09 155.5H170.5V164C170.5 167.154 169.154 168.5 166 168.5ZM148.94 145.06C148.354 144.474 148.354 143.524 148.94 142.938C149.526 142.352 150.476 142.352 151.062 142.938L152.502 144.378V132C152.502 131.172 153.174 130.5 154.002 130.5C154.83 130.5 155.502 131.172 155.502 132V144.378L156.942 142.938C157.528 142.352 158.478 142.352 159.064 142.938C159.65 143.524 159.65 144.474 159.064 145.06L155.064 149.06C154.926 149.198 154.76 149.308 154.576 149.384C154.392 149.46 154.198 149.5 154.002 149.5C153.806 149.5 153.612 149.46 153.428 149.384C153.244 149.308 153.078 149.198 152.94 149.06L148.94 145.06Z" fill="#F54F35"/>
</g>
<defs>
<filter id="filter0_d_1_2323" x="0" y="0" width="320" height="320" filterUnits="userSpaceOnUse" color-interpolation-filters="sRGB">
<feFlood flood-opacity="0" result="BackgroundImageFix"/>
<feColorMatrix in="SourceAlpha" type="matrix" values="0 0 0 0 0 0 0 0 0 0 0 0 0 0 0 0 0 0 127 0" result="hardAlpha"/>
<feOffset dx="6" dy="8"/>
<feGaussianBlur stdDeviation="40"/>
<feComposite in2="hardAlpha" operator="out"/>
<feColorMatrix type="matrix" values="0 0 0 0 0.579167 0 0 0 0 0.579167 0 0 0 0 0.579167 0 0 0 0.16 0"/>
<feBlend mode="normal" in2="BackgroundImageFix" result="effect1_dropShadow_1_2323"/>
<feBlend mode="normal" in="SourceGraphic" in2="effect1_dropShadow_1_2323" result="shape"/>
</filter>
</defs>
</svg>
