<svg width="320" height="320" viewBox="0 0 320 320" fill="none" xmlns="http://www.w3.org/2000/svg">
<g filter="url(#filter0_d_1_2330)">
<rect x="74" y="72" width="160" height="160" rx="80" fill="white"/>
<path opacity="0.24" d="M154 185.367C172.41 185.367 187.333 170.443 187.333 152.033C187.333 133.624 172.41 118.7 154 118.7C135.591 118.7 120.667 133.624 120.667 152.033C120.667 170.443 135.591 185.367 154 185.367Z" fill="#F54F35"/>
<path d="M166 165.5C165.172 165.5 164.5 164.828 164.5 164C164.5 163.172 165.172 162.5 166 162.5C169.154 162.5 170.5 161.154 170.5 158V142C170.5 138.846 169.154 137.5 166 137.5H142C138.846 137.5 137.5 138.846 137.5 142V158C137.5 161.154 138.846 162.5 142 162.5C142.828 162.5 143.5 163.172 143.5 164C143.5 164.828 142.828 165.5 142 165.5C137.164 165.5 134.5 162.836 134.5 158V142C134.5 137.164 137.164 134.5 142 134.5H166C170.836 134.5 173.5 137.164 173.5 142V158C173.5 162.836 170.836 165.5 166 165.5ZM163.124 169.56C163.724 168.358 163.596 166.944 162.79 165.872L156.796 157.9C155.46 156.12 152.538 156.122 151.202 157.9L145.208 165.874C144.402 166.946 144.274 168.36 144.874 169.562C145.472 170.758 146.672 171.502 148.006 171.502H159.99C161.326 171.5 162.528 170.756 163.124 169.56ZM154.398 159.702L160.392 167.676C160.56 167.898 160.494 168.114 160.44 168.22C160.388 168.324 160.26 168.5 159.99 168.5H148.006C147.736 168.5 147.61 168.324 147.556 168.22C147.504 168.112 147.436 167.898 147.604 167.676L153.598 159.702C153.728 159.528 153.904 159.502 153.996 159.502C154.088 159.502 154.268 159.526 154.398 159.702Z" fill="#F54F35"/>
</g>
<defs>
<filter id="filter0_d_1_2330" x="0" y="0" width="320" height="320" filterUnits="userSpaceOnUse" color-interpolation-filters="sRGB">
<feFlood flood-opacity="0" result="BackgroundImageFix"/>
<feColorMatrix in="SourceAlpha" type="matrix" values="0 0 0 0 0 0 0 0 0 0 0 0 0 0 0 0 0 0 127 0" result="hardAlpha"/>
<feOffset dx="6" dy="8"/>
<feGaussianBlur stdDeviation="40"/>
<feComposite in2="hardAlpha" operator="out"/>
<feColorMatrix type="matrix" values="0 0 0 0 0.579167 0 0 0 0 0.579167 0 0 0 0 0.579167 0 0 0 0.16 0"/>
<feBlend mode="normal" in2="BackgroundImageFix" result="effect1_dropShadow_1_2330"/>
<feBlend mode="normal" in="SourceGraphic" in2="effect1_dropShadow_1_2330" result="shape"/>
</filter>
</defs>
</svg>
